<svg width="42" height="48" viewBox="0 0 42 48" fill="none" xmlns="http://www.w3.org/2000/svg">
<path d="M21 32L28 36V28L35 24L28 20V12L21 16L14 12V20L7 24L14 28V36L21 32Z" fill="#4187F5"/>
<path d="M42 20L35 24V16L28 12L35 8L42 12V20Z" fill="#4187F5"/>
<path d="M42 28L35 24V32L28 36L35 40L42 36V28Z" fill="#4187F5"/>
<path d="M14 44V36L21 40L28 36V44L21 48L14 44Z" fill="#4187F5"/>
<path d="M0 28L7 24V32L14 36L7 40L0 36V28Z" fill="#4187F5"/>
<path d="M0 20L7 24V16L14 12L7 8L0 12V20Z" fill="#4187F5"/>
<path d="M14 4V12L21 8L28 12V4L21 0L14 4Z" fill="#4187F5"/>
</svg>
