<svg width="100" height="100" viewBox="0 0 100 100" fill="none" xmlns="http://www.w3.org/2000/svg">
<path d="M98 33.3333L88.4 50L78.8 33.3333H59.6L69.2 16.6667H88.4L98 33.3333Z" fill="#FF6E3C"/>
<path d="M88.4 83.3333H69.2L78.8 66.6667L69.2 50H88.4L98 66.6667L88.4 83.3333Z" fill="#FF6E3C"/>
<path d="M69.2 83.3333L59.6 66.6667L50 83.3333H30.8L40.4 100H59.6L69.2 83.3333Z" fill="#FF6E3C"/>
<path d="M2 66.6667L11.6 50L21.2 66.6667H40.4L30.8 83.3333H11.6L2 66.6667Z" fill="#FF6E3C"/>
<path d="M11.6 50H30.8L21.2 33.3333L30.8 16.6667H11.6L2 33.3333L11.6 50Z" fill="#FF6E3C"/>
<path d="M30.8 16.6667L40.4 33.3333L50 16.6667H69.2L59.6 0H40.4L30.8 16.6667Z" fill="#FF6E3C"/>
</svg>
