<svg width="100" height="100" viewBox="0 0 100 100" fill="none" xmlns="http://www.w3.org/2000/svg">
<g>
  <path d="M50.06 50.5V31.1L66.076 40.8V60.2L50.06 50.5Z" fill="#1a2ffa"/>
  <path d="M50.06 50.5L34.04 60.2V40.8L50.06 31.1V50.5Z" fill="#808cfc"/>
  <path d="M66.08 60.2L50.06 69.9L34.04 60.2L50.06 50.5L66.076 60.2H66.08ZM82.096 50.5V31.1L98.116 40.8V60.2L82.096 50.5Z" fill="#0011ae"/>
  <path d="M98.12 60.2L82.096 69.9L66.076 60.2L82.096 50.5L98.116 60.2H98.12ZM34.04 79.6L18.02 89.3V69.9L34.04 60.2V79.6Z" fill="#1a2ffa"/>
  <path d="M50.06 89.3L34.04 99L18.02 89.3L34.04 79.6L50.06 89.3Z" fill="#0011ae"/>
  <path d="M34.04 40.8L18.02 50.5L2 40.8L18.02 31.1L34.04 40.8Z" fill="#1a2ffa"/>
  <path d="M18.02 69.9V50.5L2 40.8V60.2L18.02 69.9ZM66.08 99V79.6L82.096 69.9V89.3L66.08 99Z" fill="#0011ae"/>
  <path d="M66.08 99V79.6L50.06 69.9V89.3L66.076 99H66.08Z" fill="#1a2ffa"/>
  <path d="M82.096 11.7L66.08 21.4L50.064 11.7L66.076 2L82.096 11.7Z" fill="#0011ae"/>
  <path d="M66.08 40.8V21.4L82.096 11.7V31.1L66.08 40.8ZM34.04 21.4V2L50.06 11.7V31.1L34.04 21.4Z" fill="#1a2ffa"/>
  <path d="M34.04 21.4L18.02 31.1V11.7L34.04 2V21.4Z" fill="#0011ae"/>
</g>
</svg>
