<svg xmlns="http://www.w3.org/2000/svg" xmlns:xlink="http://www.w3.org/1999/xlink"><symbol viewBox="0 0 16 16" id="account"><path fill-rule="evenodd" d="M16 0v16H0V0z" opacity=".01"/><path stroke="#353535" stroke-width=".96" d="M8.16 14.646A5.6 5.6 0 0 1 6.046 3.859c.194-.08.367-.204.492-.371.652-.866 1.763-2.195 2.258-1.824.38.284.415.959.408 1.455a.53.53 0 0 0 .403.516A5.6 5.6 0 0 1 8.16 14.646Z"/><path stroke="#4DCB93" stroke-width=".96" d="M10.24 11.84a3.63 3.63 0 0 1-2.08.64 3.63 3.63 0 0 1-2.08-.64"/></symbol><symbol viewBox="0 0 16 16" id="home"><g stroke-width=".96" mask="url(#mask0_2915_2644)"><path stroke="#353535" stroke-linecap="round" stroke-linejoin="round" d="M13.44 6.72v7.04H2.56V6.72"/><path stroke="#353535" stroke-linejoin="round" d="M3.905 7.04c1.083 0 1.967-.86 1.967-1.92 0 1.06.878 1.92 1.96 1.92h.333c1.083 0 1.961-.86 1.961-1.92 0 1.06.884 1.92 1.967 1.92 1.388 0 2.353-1.365 1.853-2.633l-.981-2.487h-9.93l-.981 2.488c-.5 1.268.464 2.632 1.851 2.632Z"/><path stroke="#4DCB93" stroke-linecap="round" d="M6.4 12.16v-1.6a1.6 1.6 0 1 1 3.2 0v1.6"/></g></symbol></svg>