<svg xmlns="http://www.w3.org/2000/svg" width="16" height="16" fill="none" viewBox="0 0 16 16"><path fill="#C4C4C4" fill-rule="evenodd" d="M16 0V16H0V0H16Z" clip-rule="evenodd" opacity="0.01"/><path stroke="#353535" stroke-width="0.96" d="M8.16006 14.6459C5.06726 14.6459 2.56006 12.1387 2.56006 9.04593C2.56006 6.701 4.00131 4.69275 6.04627 3.85857C6.23987 3.77959 6.41251 3.65479 6.53823 3.48772C7.18953 2.62211 8.30051 1.2927 8.79641 1.66408C9.17609 1.94837 9.211 2.6226 9.20419 3.11862C9.20086 3.36372 9.37017 3.57147 9.607 3.63463C11.9985 4.27246 13.7601 6.45345 13.7601 9.04593C13.7601 12.1387 11.2529 14.6459 8.16006 14.6459Z" clip-rule="evenodd"/><path stroke="#4DCB93" stroke-width="0.96" d="M10.2401 11.8402C9.6652 12.2414 8.9436 12.4802 8.16008 12.4802C7.37656 12.4802 6.65496 12.2414 6.08008 11.8402"/></svg>