<svg xmlns="http://www.w3.org/2000/svg" width="16" height="16" fill="none" viewBox="0 0 16 16"><mask width="16" height="16" x="0" y="0" maskUnits="userSpaceOnUse" style="mask-type:luminance"><path fill="white" d="M16 0H0V16H16V0Z"/></mask><g mask="url(#mask0_2915_2644)"><path stroke="#353535" stroke-linecap="round" stroke-linejoin="round" stroke-width="0.96" d="M13.4398 6.71997V13.76H2.55981V6.71997"/><path stroke="#353535" stroke-linejoin="round" stroke-width="0.96" d="M3.90541 7.03998C4.98824 7.03998 5.87205 6.18037 5.87205 5.11998C5.87205 6.18037 6.74986 7.03998 7.83268 7.03998H8.16547C9.24829 7.03998 10.1261 6.18037 10.1261 5.11998C10.1261 6.18037 11.0103 7.03998 12.0931 7.03998C13.4813 7.03998 14.4463 5.67525 13.9461 4.40712L12.965 1.91998H3.0349L2.05363 4.40849C1.55381 5.67605 2.5179 7.03998 3.90541 7.03998Z" clip-rule="evenodd"/><path stroke="#4DCB93" stroke-linecap="round" stroke-width="0.96" d="M6.3999 12.16V10.56C6.3999 9.67631 7.11625 8.95996 7.9999 8.95996C8.88356 8.95996 9.5999 9.67631 9.5999 10.56V12.16"/></g></svg>