<svg xmlns="http://www.w3.org/2000/svg" viewBox="0 0 256 256" width="256" height="256"><path d="M231.6 175.1A56.2 56.2 0 0 1 176 224C96.6 224 32 159.4 32 80a56.2 56.2 0 0 1 48.9-55.6A16.3 16.3 0 0 1 97.6 34l20.1 46.9a15.9 15.9 0 0 1-1.4 15.1l-16.6 25.4a76.5 76.5 0 0 0 35.2 35l25.1-16.7a15.6 15.6 0 0 1 15.1-1.3l46.9 20a16.3 16.3 0 0 1 9.6 16.7ZM157.4 47.7a72.6 72.6 0 0 1 50.9 50.9a8 8 0 0 0 7.7 6a7.6 7.6 0 0 0 2.1-.3a7.9 7.9 0 0 0 5.6-9.8a88 88 0 0 0-62.2-62.2a8 8 0 1 0-4.1 15.4Zm-8.3 30.9a40.4 40.4 0 0 1 28.3 28.3a7.9 7.9 0 0 0 7.7 6a6.4 6.4 0 0 0 2-.3a7.9 7.9 0 0 0 5.7-9.8a55.8 55.8 0 0 0-39.6-39.6a8 8 0 1 0-4.1 15.4Z"></path></svg>