<svg width="16" height="16" viewBox="0 0 16 16" fill="none" xmlns="http://www.w3.org/2000/svg">
<path fill-rule="evenodd" clip-rule="evenodd" d="M4.70186 3.10557C5.04064 2.42801 5.73317 2 6.49073 2H8.8426C9.60013 2 10.2927 2.42801 10.6315 3.10557L10.8944 3.63147C11.0073 3.85733 11.2382 4 11.4907 4H12.3333C13.4379 4 14.3333 4.89543 14.3333 6V12C14.3333 13.1046 13.4379 14 12.3333 14H3C1.89543 14 1 13.1046 1 12V6C1 4.89543 1.89543 4 3 4H3.84262C4.09513 4 4.32598 3.85733 4.43891 3.63147L4.70186 3.10557ZM5.66667 8.66667C5.66667 7.56207 6.56207 6.66667 7.66667 6.66667C8.77127 6.66667 9.66667 7.56207 9.66667 8.66667C9.66667 9.77127 8.77127 10.6667 7.66667 10.6667C6.56207 10.6667 5.66667 9.77127 5.66667 8.66667ZM7.66667 5.33333C5.82572 5.33333 4.33333 6.82573 4.33333 8.66667C4.33333 10.5076 5.82572 12 7.66667 12C9.5076 12 11 10.5076 11 8.66667C11 6.82573 9.5076 5.33333 7.66667 5.33333Z" fill="black"/>
</svg>
