<svg width="960" height="640" viewBox="0 0 960 640" fill="none" xmlns="http://www.w3.org/2000/svg">
<path d="M895.795 528.694C967.133 453.403 939.147 305.547 855.342 250.657C802.191 215.867 778.032 194.607 726.814 179.145C675.596 163.683 603.117 193.64 584.756 233.262C566.395 272.884 592.487 326.034 562.529 371.454C532.571 416.874 521.941 480.655 548.033 524.142C574.126 567.63 648.537 604.352 722.881 606.285C765.295 607.406 808.946 596.708 845.282 574.568C865.248 562.401 878.999 546.099 894.916 529.622L895.795 528.694Z" fill="#003FCC"/>
<path d="M728.892 631.034C840.945 631.034 931.783 622.147 931.783 611.184C931.783 600.222 840.945 591.335 728.892 591.335C616.838 591.335 526 600.222 526 611.184C526 622.147 616.838 631.034 728.892 631.034Z" fill="#263238" stroke="#263238" stroke-miterlimit="10"/>
<path d="M641.821 496.494C640.726 492.525 640.096 488.442 639.946 484.327C639.946 478.529 641.695 459.588 635.578 445.034C629.461 430.481 616.956 440.966 616.956 440.966H591.057C591.752 442.828 592.843 444.516 594.255 445.914C596.295 447.653 599.203 455.81 596.874 464.536C595.357 470.228 588.515 475.92 583.944 479.196C582.611 479.984 581.321 480.842 580.079 481.767C579.837 481.921 579.692 481.999 579.692 481.999C567.274 491.45 559.05 507.811 559.05 526.452C558.97 537.606 562.064 548.552 567.97 558.014L568.028 558.236C568.028 558.236 579.412 577.709 581.451 583.865C582.785 587.856 583.239 594.495 583.384 598.544C583.421 599.528 583.839 600.458 584.549 601.14C585.26 601.821 586.207 602.2 587.191 602.197H619.41C619.916 602.198 620.416 602.099 620.882 601.904C621.349 601.71 621.772 601.424 622.126 601.064C622.481 600.704 622.76 600.277 622.948 599.808C623.135 599.339 623.227 598.837 623.218 598.331C623.17 594.331 623.498 588.146 625.73 584.435C629.219 578.637 635.037 569.301 641.734 557.077C642.471 555.736 643.132 554.355 643.715 552.94C648.009 544.093 650.084 534.332 649.761 524.502C649.437 514.673 646.725 505.07 641.859 496.523L641.821 496.494ZM628.011 480.8C628.011 480.8 626.078 479.834 624.551 478.945C622.226 476.007 620.08 472.931 618.125 469.735C614.337 463.628 615.226 456.931 616.956 450.823C618.686 444.716 623.943 444.706 627.721 448.494C631.5 452.282 632.379 461.878 632.379 471.774C632.379 481.67 628.011 480.8 628.011 480.8Z" fill="#263238"/>
<path d="M881.029 276.971C877.791 267.085 868.601 262.688 864.243 261.239C864.658 259.035 868.534 237.272 863.083 221.028C857.333 203.903 844.248 201.507 833.464 198.279C822.679 195.051 807.023 197.989 807.023 197.989C807.023 197.989 791.919 202.241 785.174 212.485C778.428 222.728 777.655 235.591 777.955 241.418C778.254 247.245 777.443 260.746 777.443 260.746C777.443 260.746 765.633 263.906 764.049 279.629C762.464 295.352 766.861 388.83 770.127 409.723C773.393 430.616 777.53 485.352 777.53 485.352L779.337 562.914C779.337 562.914 779.201 586.783 778.37 589.315C777.539 591.847 772.968 598.67 771.412 603.096C769.856 607.522 769.286 611.687 774.621 614.257C779.955 616.828 824.38 618.538 829.202 618.828C834.024 619.118 840.798 619.514 844.886 615.572C848.974 611.629 850.259 595.886 850.858 591.412C851.458 586.938 860.261 482.897 860.629 476.79C860.996 470.682 871.81 376.46 872.293 368.42C872.776 360.38 885.165 289.476 881.029 276.971Z" fill="#7D7D7D" stroke="#263238" stroke-miterlimit="10"/>
<path d="M869.21 283.639C868.238 280.238 866.494 277.108 864.114 274.491C861.733 271.875 858.781 269.843 855.487 268.554C855.826 266.438 858.995 245.554 854.521 229.967C849.824 213.538 839.117 211.238 830.304 208.136C821.49 205.034 808.666 207.856 808.666 207.856C808.666 207.856 796.316 211.944 790.798 221.772C785.28 231.6 784.661 243.95 784.903 249.497C785.145 255.044 784.487 268.042 784.487 268.042C784.487 268.042 774.824 271.086 773.529 286.162C772.234 301.237 775.829 390.985 778.496 410.989C781.163 430.993 784.555 483.564 784.555 483.564L786.034 557.975C786.034 557.975 785.918 580.879 785.27 583.314C784.623 585.749 780.844 592.291 779.578 596.534C778.312 600.776 777.839 604.777 782.197 607.251C786.555 609.725 822.901 611.349 826.844 611.629C830.787 611.909 836.314 612.296 839.677 608.507C843.04 604.719 844.074 589.615 844.558 585.314C845.041 581.014 852.289 481.196 852.55 475.331C852.811 469.465 861.692 379.06 862.088 371.338C862.484 363.617 872.602 295.642 869.21 283.639Z" fill="#263238" stroke="#263238" stroke-miterlimit="10"/>
<path d="M829.501 264.312C829.501 264.312 817.615 267.211 815.605 282.828C813.595 298.444 815.479 392.106 818.185 413.038C820.891 433.969 823.558 488.841 823.558 488.841L823.317 566.47C823.317 566.47 822.534 590.33 821.674 592.842C820.814 595.355 816.02 602.052 814.349 606.43C812.677 610.807 811.991 614.953 817.248 617.678C822.505 620.403 866.881 623.283 871.694 623.709C876.506 624.134 883.29 624.675 887.465 620.877C891.64 617.079 893.36 601.337 894.075 596.872C894.79 592.407 906.396 488.638 906.928 482.559C907.459 476.481 920.795 382.558 921.491 374.537C922.187 366.516 936.383 295.883 932.614 283.32C928.845 270.757 915.316 266.621 914.031 266.515C914.031 266.515 915.635 251.778 911.373 237.524C907.111 223.27 897.844 215.007 883.164 212.398C868.485 209.789 849.776 213.364 843.205 225.734C836.633 238.103 835.106 244.433 834.72 248.927C834.333 253.421 833.753 259.837 833.753 259.837L829.501 264.312Z" fill="#003FCC" stroke="#263238" stroke-miterlimit="10"/>
<path d="M829.395 602.255L824.128 601.743" stroke="#263238" stroke-miterlimit="10"/>
<path d="M878.458 607L838.769 603.163" stroke="#263238" stroke-miterlimit="10"/>
<path d="M914.359 393.729L903.574 482.569" stroke="#263238" stroke-miterlimit="10"/>
<path d="M915.847 381.505L915.268 386.25" stroke="#263238" stroke-miterlimit="10"/>
<path d="M890.18 586.677C888.663 594.476 886.73 603.589 885.464 606.42C883.136 611.677 878.458 610.508 877.878 616.345C877.299 622.182 884.305 620.442 884.305 620.442" stroke="#263238" stroke-miterlimit="10"/>
<path d="M892.48 574.288C892.48 574.288 892.065 576.665 891.417 580.154" stroke="#263238" stroke-miterlimit="10"/>
<path d="M860.754 202.367C860.754 202.367 845.543 206.232 838.527 216.273C831.511 226.314 830.39 239.176 830.535 245.003C830.68 250.831 829.501 264.331 829.501 264.331C829.501 264.331 837.29 264.041 837.774 269.578C838.257 275.116 840.914 311.568 840.914 311.568L857.285 312.988L861.576 263.568C861.576 263.568 860.503 257.334 860.754 254.445L861.005 251.546L884.314 253.575C884.314 253.575 882.314 263.094 882.034 266.302C881.754 269.511 877.907 313.8 877.907 313.8L896.839 315.453C896.839 315.453 905.324 277.387 906.271 273.898C907.218 270.41 916.215 267.327 916.215 267.327C916.215 267.327 921.462 244.134 916.215 226.903C910.967 209.673 897.911 206.889 887.223 203.372C876.535 199.854 860.754 202.367 860.754 202.367Z" fill="#003FCC" stroke="#263238" stroke-miterlimit="10"/>
<path d="M917.925 235.175L874.438 234.885L915.026 249.594L907.807 259.045L871.017 234.296L883.309 253.469L884.276 253.566L884.044 254.687L892.297 267.559L893.109 267.037L874.351 237.698L908.039 260.35L916.611 249.14L880.043 235.89L918.041 236.142L917.925 235.175Z" fill="#263238"/>
<path d="M876.67 229.802L874.97 229.909L874.825 229.841L874.95 229.715L874.776 229.822L873.81 229.367L903.439 209.798L902.473 209.247L877.202 225.946L895.969 206.281L895.003 205.923L872.95 229L872.505 228.807L873.182 226.932L873.365 227.135L873.23 226.778L882.111 202.144L881.145 201.99L873.336 223.656L874.409 201.487H873.443L872.322 224.371L863.963 201.99L862.996 202.106L870.814 223.009L853.748 204.879L852.782 205.295L872.215 225.946L872.09 228.633L840.045 214.34L839.397 215.113L868.041 227.879L835.184 222.216C834.495 223.711 833.892 225.243 833.377 226.806L832.014 233.475L868.736 231.252L834.691 241.766L838.701 253.14L869.2 234.393L844.683 260.272L845.379 260.939L874.119 230.585L876.67 229.802ZM873.201 229.744L874.351 229.938L872.757 230.034L873.201 229.744ZM872.235 229.58H872.38L872.128 229.851L872.235 229.58ZM833.183 232.479L835.116 223.221L872.109 229.59V229.976L871.964 230.131L833.183 232.479ZM839.223 251.72L835.938 242.423L872.834 231.03H872.931L839.223 251.72Z" fill="#263238"/>
<path d="M911.75 217.607C911.566 217.326 911.363 217.065 911.17 216.804L872.07 233.706L916.166 226.884C916.07 226.565 915.963 226.256 915.867 225.917L879.367 231.6L911.75 217.607Z" fill="#263238"/>
<path d="M882.169 213.635C882.169 213.635 871.162 211.18 865.741 212.958C860.319 214.736 856.811 216.669 856.618 218.902C856.425 221.134 856.164 224.101 856.164 224.101C856.164 224.101 854.047 218.302 851.805 222.593C849.563 226.884 848.491 230.537 850.027 234.412C850.763 236.548 852.183 238.382 854.067 239.63C854.067 239.63 857.565 246.675 859.865 250.608C862.165 254.542 863.731 257.315 868.872 258.881C874.013 260.446 880.923 258.05 884.247 254.232C887.571 250.415 891.012 240.597 891.012 240.597C891.012 240.597 896.037 238.79 896.704 235.485C897.37 232.18 897.573 225.454 896.617 223.501C895.66 221.549 893.099 220.95 893.099 220.95C893.099 220.95 888.934 217.22 887.88 216.379" fill="#D6D6D6"/>
<path d="M882.169 213.635C882.169 213.635 871.162 211.18 865.741 212.958C860.319 214.736 856.811 216.669 856.618 218.902C856.425 221.134 856.164 224.101 856.164 224.101C856.164 224.101 854.047 218.302 851.805 222.593C849.563 226.884 848.491 230.537 850.027 234.412C850.763 236.548 852.183 238.382 854.067 239.63C854.067 239.63 857.565 246.675 859.865 250.608C862.165 254.542 863.731 257.315 868.872 258.881C874.013 260.446 880.923 258.05 884.247 254.232C887.571 250.415 891.012 240.597 891.012 240.597C891.012 240.597 896.037 238.79 896.704 235.485C897.37 232.18 897.573 225.454 896.617 223.501C895.66 221.549 893.099 220.95 893.099 220.95C893.099 220.95 888.934 217.22 887.88 216.379" stroke="#263238" stroke-miterlimit="10"/>
<path d="M870.515 227.212L869.77 235.755C869.77 235.755 867.548 235.562 867.751 237.446C867.954 239.331 875.801 239.65 876.67 238.229C877.54 236.809 874.322 235.001 874.322 235.001L874.225 227.512" stroke="#263238" stroke-miterlimit="10"/>
<path d="M859.073 225.473C859.073 225.473 865.151 220.013 870.37 224.584" stroke="#263238" stroke-miterlimit="10"/>
<path d="M875.202 224.999C875.202 224.999 881.396 222.545 884.72 227.328" stroke="#263238" stroke-miterlimit="10"/>
<path d="M868.321 243.863C869.569 243.778 870.822 243.778 872.07 243.863C873.549 243.989 876.332 246.472 876.332 246.472L866.301 245.603C866.301 245.603 867.461 249.468 871.133 249.768C874.805 250.067 876.149 247.961 876.149 247.961" stroke="#263238" stroke-miterlimit="10"/>
<path d="M856.193 224.101L856.019 233.88" stroke="#263238" stroke-miterlimit="10"/>
<path d="M892.2 223.115L891.572 234.654" stroke="#263238" stroke-miterlimit="10"/>
<path d="M876.294 229.59C876.294 229.59 878.748 227.183 881.657 228.179C884.566 229.174 887.455 230.556 887.455 230.556L890.432 230.817" stroke="#263238" stroke-miterlimit="10"/>
<path d="M887.436 230.556C885.576 230.878 883.683 230.965 881.802 230.817" stroke="#263238" stroke-miterlimit="10"/>
<path d="M870.35 229.068C870.35 229.068 868.35 226.275 865.315 226.758C862.281 227.241 859.218 228.101 859.218 228.101L856.241 227.841" stroke="#263238" stroke-miterlimit="10"/>
<path d="M859.218 228.101C860.993 228.735 862.84 229.147 864.716 229.329" stroke="#263238" stroke-miterlimit="10"/>
<path d="M896.655 223.501C896.655 223.501 900.318 220.081 898.211 214.282C896.104 208.484 886.489 202.782 875.347 201.816C864.204 200.85 852.511 206.194 850.54 211.634C848.568 217.075 854.125 222.052 854.125 222.052L856.328 223.018C856.328 223.018 855.362 218.505 858.425 216.254C862.607 213 867.9 211.521 873.162 212.137C880.575 212.784 886.75 214.978 889.591 217.578C892.432 220.177 893.167 220.883 893.167 220.883C893.167 220.883 896.491 222.226 896.655 223.501Z" fill="#263238" stroke="#263238" stroke-miterlimit="10"/>
<path d="M874.941 209.044C877.7 209.044 879.937 207.556 879.937 205.72C879.937 203.884 877.7 202.396 874.941 202.396C872.181 202.396 869.944 203.884 869.944 205.72C869.944 207.556 872.181 209.044 874.941 209.044Z" fill="#263238" stroke="#263238" stroke-miterlimit="10"/>
<path d="M821.964 342.569C820.33 343.168 818.697 343.69 817.016 344.183L815.083 344.715C815.083 346.019 815.131 347.324 815.16 348.58C816.813 350.078 818.523 351.479 820.282 352.88C820.652 349.415 821.214 345.973 821.964 342.569Z" fill="#263238" stroke="#263238" stroke-miterlimit="10"/>
<path d="M842.78 365.598C842.18 362.061 841.697 358.679 841.456 355.19C840.064 356.157 838.624 357.21 837.165 358.167C835.706 359.123 834.217 360.022 832.681 360.921C835.956 362.669 839.328 364.231 842.78 365.598Z" fill="#263238" stroke="#263238" stroke-miterlimit="10"/>
<path d="M832.381 520.673C835.699 522.309 839.102 523.764 842.577 525.031C841.9 521.524 841.32 518.151 840.972 514.672C839.613 515.728 838.212 516.762 836.769 517.774C835.338 518.779 833.889 519.726 832.381 520.673Z" fill="#263238" stroke="#263238" stroke-miterlimit="10"/>
<path d="M852.376 359.365C851.126 360.55 849.837 361.723 848.51 362.882C847.186 364.023 845.843 365.115 844.442 366.217C847.922 367.508 851.471 368.608 855.072 369.512C853.999 366.081 853.081 362.786 852.376 359.365Z" fill="#263238" stroke="#263238" stroke-miterlimit="10"/>
<path d="M826.583 351.933C824.988 352.677 823.375 353.383 821.751 354.03C824.744 356.246 827.875 358.27 831.125 360.09C831.057 358.311 831.028 356.562 831.048 354.833C831.067 353.103 831.144 351.325 831.26 349.614C829.704 350.426 828.148 351.16 826.583 351.933Z" fill="#263238" stroke="#263238" stroke-miterlimit="10"/>
<path d="M832.497 338.472C832.478 335.008 832.656 331.546 833.029 328.102C829.946 329.688 826.778 331.101 823.539 332.335C826.386 334.576 829.379 336.626 832.497 338.472Z" fill="#263238" stroke="#263238" stroke-miterlimit="10"/>
<path d="M842.77 333.756C839.949 335.779 837.02 337.647 833.995 339.351C837.143 341.128 840.392 342.719 843.727 344.115C843.224 340.682 842.904 337.224 842.77 333.756Z" fill="#263238" stroke="#263238" stroke-miterlimit="10"/>
<path d="M877.869 367.782C876.935 366.294 876.062 364.806 875.25 363.317C873.537 366.369 871.619 369.3 869.51 372.092C871.442 372.208 873.298 372.324 875.182 372.353L878.023 372.295H879.444L880.855 372.169C880.333 371.464 879.821 370.749 879.318 370.043C878.816 369.338 878.342 368.526 877.869 367.782Z" fill="#263238" stroke="#263238" stroke-miterlimit="10"/>
<path d="M875.192 351.054L877.965 350.996H879.357L880.729 350.87C880.217 350.165 879.705 349.459 879.222 348.744C878.738 348.029 878.255 347.256 877.801 346.522C876.893 345.033 876.046 343.545 875.26 342.057C873.617 345.091 871.76 348.004 869.703 350.774C871.5 350.909 873.356 351.025 875.192 351.054Z" fill="#263238" stroke="#263238" stroke-miterlimit="10"/>
<path d="M881.087 529.438C879.937 528.143 878.806 526.703 877.762 525.321C876.719 523.939 875.704 522.558 874.767 521.098C874.058 522.644 873.291 524.194 872.467 525.747C872.061 526.52 871.636 527.302 871.191 528.076C870.747 528.849 870.292 529.573 869.819 530.318H871.239L872.65 530.24L875.482 530.095C876.448 530.037 877.357 529.892 878.294 529.796C879.231 529.699 880.169 529.631 881.087 529.438Z" fill="#263238" stroke="#263238" stroke-miterlimit="10"/>
<path d="M847.863 345.72L850.424 346.58C852.124 347.188 853.864 347.623 855.594 348.126C854.627 344.705 853.835 341.361 853.236 337.989C851.999 339.158 850.713 340.327 849.37 341.468C848.027 342.608 846.713 343.671 845.321 344.753L847.863 345.72Z" fill="#263238" stroke="#263238" stroke-miterlimit="10"/>
<path d="M862.175 371.039L864.89 371.522L867.712 371.87C866.939 370.259 866.234 368.649 865.596 367.038C864.958 365.405 864.359 363.752 863.798 362.129C861.585 364.815 859.247 367.376 856.763 369.86C858.56 370.295 860.358 370.739 862.175 371.039Z" fill="#263238" stroke="#263238" stroke-miterlimit="10"/>
<path d="M862.329 529.921L865.161 530.153L866.581 530.269H867.992C867.548 529.515 867.103 528.752 866.688 527.998C866.272 527.244 865.857 526.413 865.47 525.631C864.684 524.059 863.966 522.487 863.315 520.915C861.301 523.776 859.096 526.498 856.715 529.061C858.58 529.39 860.455 529.747 862.329 529.921Z" fill="#263238" stroke="#263238" stroke-miterlimit="10"/>
<path d="M867.896 350.552C867.174 348.941 866.507 347.33 865.895 345.72C865.306 344.077 864.745 342.434 864.233 340.801C862.049 343.487 859.739 346.019 857.266 348.532C859.015 348.938 860.754 349.373 862.513 349.682L865.151 350.175L867.896 350.552Z" fill="#263238" stroke="#263238" stroke-miterlimit="10"/>
<path d="M844.258 525.611C845.998 526.21 847.747 526.8 849.515 527.283L852.173 528.047L854.937 528.675C854.347 526.993 853.806 525.321 853.332 523.669C852.859 522.016 852.443 520.277 852.047 518.605C849.563 521.05 846.983 523.36 844.258 525.611Z" fill="#263238" stroke="#263238" stroke-miterlimit="10"/>
<path d="M911.547 340.772C913.084 339.805 914.64 338.926 916.128 337.921C912.987 336.404 909.904 334.712 907.005 332.954C907.117 336.415 907.036 339.88 906.764 343.333C908.416 342.559 909.962 341.632 911.547 340.772Z" fill="#263238" stroke="#263238" stroke-miterlimit="10"/>
<path d="M897.129 515.426C896.752 518.9 896.188 522.352 895.438 525.766C897.834 524.944 900.173 523.978 902.463 522.954C902.598 521.804 902.724 520.673 902.85 519.552C900.888 518.218 898.955 516.866 897.129 515.426Z" fill="#263238" stroke="#263238" stroke-miterlimit="10"/>
<path d="M918.215 348.068C918.592 351.47 918.882 354.997 918.95 358.505C920.525 357.538 922.003 356.437 923.521 355.383L924.729 354.485C924.922 353.373 925.115 352.233 925.318 351.073C922.902 350.155 920.515 349.141 918.215 348.068Z" fill="#263238" stroke="#263238" stroke-miterlimit="10"/>
<path d="M897.728 359.23C897.213 362.685 896.473 366.104 895.515 369.464C899.114 368.42 902.637 367.128 906.058 365.598C904.599 364.632 903.159 363.549 901.767 362.496C900.376 361.443 899.061 360.389 897.728 359.23Z" fill="#263238" stroke="#263238" stroke-miterlimit="10"/>
<path d="M916.437 326.624C916.939 329.977 917.403 333.476 917.558 336.955C919.066 335.988 920.457 334.867 921.916 333.814C923.376 332.76 924.748 331.62 926.091 330.451C922.854 329.31 919.539 327.996 916.437 326.624Z" fill="#263238" stroke="#263238" stroke-miterlimit="10"/>
<path d="M908.358 354.378C908.338 357.872 908.132 361.363 907.74 364.835C911.094 363.248 914.353 361.467 917.5 359.5C914.292 357.906 911.257 356.214 908.358 354.378Z" fill="#263238" stroke="#263238" stroke-miterlimit="10"/>
<path d="M927.396 329.349C927.985 328.827 928.565 328.286 929.145 327.755C929.512 325.406 929.86 323.048 930.198 320.719C928.497 320.249 926.809 319.74 925.134 319.192C926.023 322.536 926.719 325.841 927.396 329.349Z" fill="#263238" stroke="#263238" stroke-miterlimit="10"/>
<path d="M830.526 509.453C829.047 510.313 827.511 511.164 825.955 511.966C825.143 512.382 824.312 512.797 823.471 513.193V515.735C825.858 517.242 828.303 518.634 830.796 519.939C830.529 516.45 830.438 512.951 830.526 509.453Z" fill="#263238" stroke="#263238" stroke-miterlimit="10"/>
<path d="M814.774 317.424C815.354 315.858 815.962 314.312 816.62 312.805L814.764 313.104C814.764 314.515 814.764 315.955 814.774 317.424Z" fill="#263238" stroke="#263238" stroke-miterlimit="10"/>
<path d="M890.064 366.207C888.866 364.912 887.735 363.656 886.653 362.341C886.112 363.945 885.503 365.569 884.846 367.173C884.517 367.985 884.17 368.806 883.812 369.618C883.454 370.43 883.068 371.203 882.672 371.995L884.083 371.86L885.484 371.648L888.286 371.213C889.253 371.058 890.132 370.816 891.05 370.623C891.968 370.43 892.906 370.246 893.795 369.966C892.519 368.787 891.253 367.463 890.064 366.207Z" fill="#263238" stroke="#263238" stroke-miterlimit="10"/>
<path d="M814.822 324.45C817.136 326.85 819.591 329.109 822.176 331.214C822.434 329.462 822.734 327.742 823.075 326.054C823.413 324.363 823.819 322.671 824.244 321.029C821.151 322.079 818.002 322.96 814.812 323.667C814.812 323.957 814.812 324.198 814.822 324.45Z" fill="#263238" stroke="#263238" stroke-miterlimit="10"/>
<path d="M886.131 519.175C885.258 522.555 884.174 525.876 882.884 529.119C886.568 528.454 890.201 527.53 893.756 526.355C892.403 525.234 891.079 524.026 889.804 522.838C888.528 521.649 887.31 520.46 886.131 519.175Z" fill="#263238" stroke="#263238" stroke-miterlimit="10"/>
<path d="M902.714 345.217C903.545 344.85 904.396 344.521 905.208 344.106C903.758 343.139 902.308 342.105 900.917 341.071C899.525 340.037 898.201 338.984 896.897 337.853C896.495 341.295 895.869 344.708 895.022 348.068C896.79 347.585 898.482 346.889 900.202 346.28C901.052 345.961 901.874 345.575 902.714 345.217Z" fill="#263238" stroke="#263238" stroke-miterlimit="10"/>
<path d="M885.242 350.31L887.967 349.865C888.876 349.682 889.765 349.459 890.664 349.257C891.562 349.054 892.461 348.86 893.331 348.58C892.055 347.411 890.799 346.125 889.62 344.859C888.441 343.594 887.31 342.318 886.238 340.994C885.748 342.598 885.191 344.209 884.566 345.826C884.257 346.638 883.928 347.459 883.599 348.271C883.271 349.083 882.894 349.856 882.507 350.648L883.889 350.513L885.242 350.31Z" fill="#263238" stroke="#263238" stroke-miterlimit="10"/>
<path d="M838.663 242.327C835.86 235.311 839.291 220.757 841.562 212.717C840.432 213.801 839.41 214.992 838.508 216.273C831.492 226.333 830.371 239.176 830.516 245.003C830.661 250.831 829.482 264.331 829.482 264.331C829.482 264.331 837.271 264.041 837.754 269.578C838.237 275.116 840.895 311.568 840.895 311.568L857.266 312.988L861.556 263.568C861.556 263.568 861.295 262.002 861.054 260.069C851.68 256.407 842.248 251.295 838.663 242.327Z" fill="#616161" stroke="#263238" stroke-miterlimit="10"/>
<path d="M916.176 226.903C915.014 222.871 913.063 219.11 910.436 215.838L911.219 219.704C913.219 229.686 915.21 248.328 898.569 256.32C893.468 258.923 888.111 260.993 882.585 262.495C882.324 264.022 882.111 265.394 882.034 266.302C881.754 269.511 877.907 313.8 877.907 313.8L896.839 315.453C896.839 315.453 905.324 277.387 906.271 273.898C907.218 270.41 916.215 267.327 916.215 267.327C916.215 267.327 921.462 244.182 916.176 226.903Z" fill="#616161" stroke="#263238" stroke-miterlimit="10"/>
<path d="M607.021 585.498C607.021 585.498 602.363 586.31 602.363 589.141C602.354 589.719 602.465 590.293 602.688 590.827C602.911 591.36 603.243 591.842 603.661 592.241C604.08 592.641 604.576 592.949 605.119 593.147C605.663 593.346 606.241 593.429 606.818 593.393C609.051 593.393 611.892 590.968 611.892 590.968C611.892 590.968 612.491 585.295 607.021 585.498Z" fill="#B0B0B0" stroke="#263238" stroke-linecap="round" stroke-linejoin="round"/>
<path d="M805.38 575.428C803.056 573.553 801.035 571.33 799.389 568.837C798.79 567.639 789.503 549.065 788.904 546.369C788.305 543.673 788.305 533.478 784.661 526.848C781.018 520.219 773.577 516.363 771.779 515.464C769.982 514.566 764.889 509.473 764.29 507.975C763.691 506.477 761.594 501.983 761.594 501.983C761.594 501.983 760.096 483.409 758.898 472.915C757.699 462.42 756.839 450.504 756.839 450.504C756.839 450.504 754.143 431.631 753.843 428.036C753.544 424.441 749.012 411.549 748.151 406.776C747.291 402.002 743.658 386.704 743.658 386.704C743.658 386.704 745.455 376.518 748.49 370.227C751.524 363.936 761.671 344.135 764.068 335.437C766.464 326.74 770.359 319.009 767.363 311.471C764.367 303.933 761.671 304.581 754.182 303.382C750.033 302.649 745.832 302.249 741.619 302.184H739.821L741.319 278.807C741.319 278.807 733.53 283.9 729.036 285.698C724.543 287.495 719.44 289.293 719.44 289.293L719.141 301.856C716.89 303.546 714.166 304.489 711.352 304.552C706.858 304.552 697.822 299.159 693.077 299.159C688.333 299.159 681.094 304.851 680.196 305.451C679.297 306.05 649.329 307.847 644.237 306.05C639.144 304.252 624.764 297.662 619.671 296.463C614.578 295.265 606.19 293.467 600.489 290.762C594.787 288.056 585.21 284.77 583.413 284.77C581.615 284.77 577.721 284.77 575.024 285.968C572.57 287.06 563.65 288.867 560.529 289.447L552.575 286.867C552.575 286.867 548.381 286.268 548.381 289.563C548.381 291.834 547.241 295.101 546.536 296.917C546.324 297.451 546.275 298.034 546.396 298.595C546.516 299.156 546.8 299.668 547.212 300.068C547.666 300.483 548.178 300.657 548.681 300.068C549.879 298.57 550.478 293.767 550.778 292.868C550.822 292.754 550.909 292.66 551.02 292.607C550.536 294.492 550.275 296.589 549.879 298.57C549.28 301.566 549.58 303.064 552.575 303.663C555.571 304.262 553.175 300.967 553.175 300.967L554.073 295.874L556.17 296.173C555.545 297.624 555.116 299.151 554.895 300.715C554.895 302.213 555.793 304.31 557.291 304.909C558.789 305.509 559.988 305.209 559.688 304.31C559.428 303.325 559.228 302.324 559.089 301.314L561.186 295.883V302.774C561.186 303.672 562.684 305.47 563.582 305.47C564.481 305.47 567.448 305.769 567.777 304.571C568.105 303.373 565.979 302.175 565.979 302.175L565.38 297.98C565.38 297.98 571.671 296.183 574.077 297.082C576.484 297.98 578.909 298.28 578.909 299.778C578.909 301.276 572.319 304.871 571.42 305.17C570.521 305.47 568.424 307.567 569.922 308.166C571.42 308.765 580.407 305.47 581.905 304.871C583.403 304.272 589.395 295.883 589.395 295.883C589.395 295.883 593.888 297.381 595.686 298.879C597.483 300.377 616.366 312.408 619.062 314.158C621.759 315.907 637.337 322.246 643.328 323.445C649.32 324.643 659.505 323.445 665.806 324.643L684.68 328.238C684.68 328.238 683.781 346.212 685.279 355.809C686.777 365.405 688.275 382.771 687.975 386.965C687.675 391.159 683.143 403.441 682.283 409.733C681.423 416.024 677.19 429.814 676.891 431.611C676.591 433.409 670.3 467.561 669.102 477.147C667.903 486.734 666.106 499.925 666.106 499.925C666.106 499.925 665.507 511.608 665.507 515.503C665.507 519.397 658.906 555.356 658.607 561.048C658.307 566.74 652.615 581.12 651.117 584.416C650.509 585.857 649.808 587.258 649.02 588.61C649.02 588.61 632.244 588.909 628.349 588.31C624.616 587.705 621.219 585.794 618.763 582.918C616.965 580.521 615.168 577.825 612.472 580.221C609.775 582.618 610.075 584.416 610.075 584.416C610.075 584.416 604.982 584.415 604.982 586.812C604.982 589.209 604.683 590.678 607.079 591.006C609.476 591.335 612.172 591.905 612.172 591.905C612.172 591.905 614.868 598.795 617.564 600.602C620.261 602.41 627.75 602.709 632.543 603.308C637.337 603.907 647.522 613.494 653.514 611.097C659.505 608.701 658.607 602.709 660.404 597.906C662.202 593.103 675.093 563.455 677.49 559.86C679.886 556.265 688.574 547.577 688.574 540.986C688.574 534.396 689.173 513.416 689.173 513.416C689.173 513.416 708.047 469.928 708.945 467.271C709.844 464.613 711.941 457.684 713.439 458.284C714.937 458.883 718.271 460.68 718.271 461.579C718.271 462.478 733.26 495.74 737.454 501.133C741.648 506.525 745.842 520.006 749.736 523.002C753.631 525.998 754.829 526.597 755.129 527.496C755.428 528.394 764.715 543.982 771.306 553.588C777.897 563.194 786.894 576.356 789.29 580.85C791.687 585.343 789.59 590.137 788.092 593.132C786.594 596.128 781.492 600.023 778.795 601.221C776.099 602.419 772.504 603.627 772.504 603.627C772.504 603.627 769.808 603.028 769.808 605.724C769.808 608.42 773.674 608.42 774.64 608.72C775.606 609.02 781.83 610.218 783.927 610.517C786.024 610.817 794.422 612.015 797.717 608.72C801.012 605.425 802.81 600.921 805.506 596.157C808.202 591.393 810.899 591.663 811.498 585.971C812.097 580.279 807.478 576.926 805.38 575.428Z" fill="white" stroke="#263238" stroke-linecap="round" stroke-linejoin="round"/>
<path d="M574.957 285.988C572.502 287.08 563.583 288.887 560.461 289.467L552.508 286.886C552.508 286.886 548.314 286.287 548.314 289.583C548.314 291.854 547.173 295.12 546.468 296.937C546.256 297.47 546.208 298.054 546.328 298.615C546.449 299.175 546.733 299.688 547.144 300.087C547.599 300.503 548.111 300.677 548.613 300.087C549.812 298.589 550.411 293.786 550.71 292.888C550.755 292.773 550.841 292.68 550.952 292.627C550.469 294.511 550.208 296.608 549.812 298.589C549.212 301.585 549.512 303.083 552.508 303.682C555.504 304.281 553.107 300.986 553.107 300.986L554.006 295.893L556.103 296.193C555.502 297.64 555.096 299.161 554.895 300.715C554.895 302.213 555.793 304.31 557.291 304.909C558.789 305.509 559.988 305.209 559.688 304.31C559.428 303.325 559.228 302.324 559.089 301.314L561.186 295.883V302.774C561.186 303.672 562.684 305.47 563.583 305.47C564.481 305.47 567.448 305.769 567.777 304.571C568.105 303.373 565.979 302.174 565.979 302.174L565.38 297.98C565.38 297.98 571.671 296.183 574.077 297.082C576.484 297.98 578.909 298.28 578.909 299.778C578.909 301.276 572.319 304.871 571.42 305.17C570.521 305.47 568.424 307.567 569.922 308.166C571.42 308.765 580.407 305.47 581.905 304.871C583.403 304.272 589.395 295.883 589.395 295.883C589.395 295.883 589.762 295.999 590.361 296.212C591.101 293.015 590.975 289.679 589.994 286.548C587.876 285.726 585.681 285.12 583.442 284.741C581.557 284.789 577.663 284.789 574.957 285.988Z" fill="#B0B0B0" stroke="#263238" stroke-linecap="round" stroke-linejoin="round"/>
<path d="M550.942 292.617C550.942 292.617 551.619 289.872 553.465 290.104C555.114 290.42 556.732 290.886 558.296 291.496" stroke="#263238" stroke-linecap="round" stroke-linejoin="round"/>
<path d="M565.38 297.98L561.312 289.641L571.236 287.341L574.068 297.082C574.068 297.082 567.371 296.608 565.38 297.98Z" fill="white" stroke="#263238" stroke-linecap="round" stroke-linejoin="round"/>
<path d="M574.068 297.082L577.237 285.263L571.236 287.341L574.068 297.082Z" fill="#B0B0B0" stroke="#263238" stroke-linecap="round" stroke-linejoin="round"/>
<path d="M556.093 296.183L558.084 293.11L561.08 293.342" stroke="#263238" stroke-linecap="round" stroke-linejoin="round"/>
<path d="M578.629 298.879L589.907 286.596C589.907 286.596 584.853 285.021 583.355 284.789C581.306 284.773 579.259 284.932 577.237 285.263L573.314 296.85L578.629 298.879Z" fill="white" stroke="#263238" stroke-linecap="round" stroke-linejoin="round"/>
<path d="M755.351 355.422C745.793 353.494 735.957 353.386 726.36 355.103C710.897 358.002 698.006 360.254 698.006 360.254L746.325 375.078L755.351 355.422Z" fill="#B0B0B0" stroke="#263238" stroke-linecap="round" stroke-linejoin="round"/>
<path d="M750.113 357.21C750.113 357.21 742.769 360.302 730.786 360.302Z" fill="#B0B0B0"/>
<path d="M750.113 357.21C750.113 357.21 742.769 360.302 730.786 360.302" stroke="#263238" stroke-linecap="round" stroke-linejoin="round"/>
<path d="M747.407 364.941C747.407 364.941 739.28 368.806 726.901 364.554Z" fill="#B0B0B0"/>
<path d="M747.407 364.941C747.407 364.941 739.28 368.806 726.901 364.554" stroke="#263238" stroke-linecap="round" stroke-linejoin="round"/>
<path d="M714.521 359.529C716.924 360.753 718.934 362.628 720.32 364.941Z" fill="#B0B0B0"/>
<path d="M714.521 359.529C716.924 360.753 718.934 362.628 720.32 364.941" stroke="#263238" stroke-linecap="round" stroke-linejoin="round"/>
<path d="M687.376 370.246L745.687 396.01" stroke="#263238" stroke-linecap="round" stroke-linejoin="round"/>
<path d="M698.006 360.254L684.805 354.137" stroke="#263238" stroke-linecap="round" stroke-linejoin="round"/>
<path d="M685.124 350.59L763.101 337.602" stroke="#263238" stroke-linecap="round" stroke-linejoin="round"/>
<path d="M681.259 305.499L684.631 328.238L697.04 300.019" stroke="#263238" stroke-linecap="round" stroke-linejoin="round"/>
<path d="M710.25 304.532L684.805 336.094" stroke="#263238" stroke-linecap="round" stroke-linejoin="round"/>
<path d="M695.435 348.667L719.083 301.875L709.931 346.406" stroke="#263238" stroke-linecap="round" stroke-linejoin="round"/>
<path d="M739.763 302.174L719.083 301.875" stroke="#263238" stroke-linecap="round" stroke-linejoin="round"/>
<path d="M719.595 296.473L740.527 291.97" stroke="#263238" stroke-linecap="round" stroke-linejoin="round"/>
<path d="M741.261 278.798C741.261 278.798 733.472 283.891 728.978 285.688C724.485 287.486 719.382 289.283 719.382 289.283L719.208 296.724C725.76 293.728 736.023 288.993 740.749 286.751L741.261 278.798Z" fill="#263238" stroke="#263238" stroke-miterlimit="10"/>
<path d="M713.797 328.045L742.788 302.271" stroke="#263238" stroke-linecap="round" stroke-linejoin="round"/>
<path d="M726.36 301.952L717.981 308.069" stroke="#263238" stroke-linecap="round" stroke-linejoin="round"/>
<path d="M687.927 386.965L746.006 399.238" stroke="#263238" stroke-linecap="round" stroke-linejoin="round"/>
<path d="M682.544 407.935L748.151 406.737" stroke="#263238" stroke-linecap="round" stroke-linejoin="round"/>
<path d="M718.058 407.056L753.843 428.017" stroke="#263238" stroke-linecap="round" stroke-linejoin="round"/>
<path d="M706.385 407.607L755.989 445.624" stroke="#263238" stroke-linecap="round" stroke-linejoin="round"/>
<path d="M679.326 423.397L719.595 417.599" stroke="#263238" stroke-linecap="round" stroke-linejoin="round"/>
<path d="M676.108 438.212L730.863 426.934" stroke="#263238" stroke-linecap="round" stroke-linejoin="round"/>
<path d="M673.528 451.741L744.073 436.927" stroke="#263238" stroke-linecap="round" stroke-linejoin="round"/>
<path d="M710.25 444.329L756.955 456.573" stroke="#263238" stroke-linecap="round" stroke-linejoin="round"/>
<path d="M672.242 456.892C672.242 456.892 697.88 456.699 708.897 467.261L705.099 476.867C705.099 476.867 688.671 466.237 670.31 470.75L672.242 456.892Z" stroke="#263238" stroke-linecap="round" stroke-linejoin="round"/>
<path d="M711.535 460.439C711.535 460.439 702.519 450.456 692.536 447.876L710.25 444.329L729.259 450.127C729.259 450.127 720.561 457.221 717.981 460.439L713.391 458.235L711.535 460.439Z" fill="#263238" stroke="#263238" stroke-linecap="round" stroke-linejoin="round"/>
<path d="M668.696 480.462C668.696 480.462 690.275 480.462 696.402 496.243" stroke="#263238" stroke-linecap="round" stroke-linejoin="round"/>
<path d="M667.082 495.547C667.082 495.547 676.108 493.614 693.822 502.959" stroke="#263238" stroke-linecap="round" stroke-linejoin="round"/>
<path d="M689.106 513.966C682.041 509.797 673.999 507.573 665.797 507.521H665.7C665.574 510.594 665.458 513.812 665.458 515.522C665.458 516.682 664.869 520.654 664.047 525.814L688.883 522.239C688.99 518.392 689.077 515.252 689.106 513.966Z" fill="#B0B0B0" stroke="#263238" stroke-linecap="round" stroke-linejoin="round"/>
<path d="M662.897 532.646C662.897 532.646 683.191 530.356 688.632 542.31" stroke="#263238" stroke-linecap="round" stroke-linejoin="round"/>
<path d="M624.445 587.324L624.377 587.121C622.177 586.199 620.234 584.757 618.715 582.918C616.917 580.521 615.12 577.825 612.423 580.221C609.727 582.618 610.027 584.415 610.027 584.415C610.027 584.415 604.934 584.415 604.934 586.812C604.934 589.209 604.634 590.678 607.031 591.006C609.428 591.335 612.124 591.905 612.124 591.905C613.064 594.277 614.25 596.544 615.661 598.67C616.415 598.196 617.236 597.703 618.164 597.056C623.43 593.596 624.445 587.324 624.445 587.324Z" fill="#B0B0B0" stroke="#263238" stroke-linecap="round" stroke-linejoin="round"/>
<path d="M610.027 584.416C610.09 585.746 610.525 587.031 611.283 588.126C612.32 589.239 613.666 590.016 615.149 590.359L616.163 593.19L614.946 592.794" stroke="#263238" stroke-linecap="round" stroke-linejoin="round"/>
<path d="M660.501 547.616C660.501 547.616 671.643 540.725 682.785 553.491" stroke="#263238" stroke-linecap="round" stroke-linejoin="round"/>
<path d="M662.124 537.285C662.124 537.285 679.519 539.517 686.033 548.428" stroke="#263238" stroke-linecap="round" stroke-linejoin="round"/>
<path d="M658.887 558.149L677.441 559.85" stroke="#263238" stroke-linecap="round" stroke-linejoin="round"/>
<path d="M658.075 565.04L673.875 567.262" stroke="#263238" stroke-linecap="round" stroke-linejoin="round"/>
<path d="M656.858 569.089C656.858 569.089 668.203 572.529 669.015 577.187" stroke="#263238" stroke-linecap="round" stroke-linejoin="round"/>
<path d="M654.828 574.761C654.828 574.761 663.526 583.266 664.154 587.923" stroke="#263238" stroke-linecap="round" stroke-linejoin="round"/>
<path d="M648.972 588.61C648.972 588.61 659.09 591.373 660.907 595.017" stroke="#263238" stroke-linecap="round" stroke-linejoin="round"/>
<path d="M646.121 589.141C646.121 589.141 651.997 600.283 649.987 611.02" stroke="#263238" stroke-linecap="round" stroke-linejoin="round"/>
<path d="M640.854 588.938C640.854 588.938 643.695 598.863 642.275 607.985" stroke="#263238" stroke-linecap="round" stroke-linejoin="round"/>
<path d="M632.756 588.532C632.725 593.429 631.458 598.239 629.074 602.516" stroke="#263238" stroke-linecap="round" stroke-linejoin="round"/>
<path d="M721.682 469.02C721.682 469.02 729.578 455.249 740.72 452.592" stroke="#263238" stroke-linecap="round" stroke-linejoin="round"/>
<path d="M724.92 476.316C724.92 476.316 737.483 460.912 755.303 456.254" stroke="#263238" stroke-linecap="round" stroke-linejoin="round"/>
<path d="M729.578 486.444C729.578 486.444 740.72 471.446 758.144 467.194" stroke="#263238" stroke-linecap="round" stroke-linejoin="round"/>
<path d="M732.622 493.122C732.622 493.122 748.422 486.85 760.772 492.716" stroke="#263238" stroke-linecap="round" stroke-linejoin="round"/>
<path d="M736.062 479.959C736.062 479.959 753.283 479.351 759.767 484.212" stroke="#263238" stroke-linecap="round" stroke-linejoin="round"/>
<path d="M738.091 502.244C738.091 502.244 752.162 497.142 761.632 502.022" stroke="#263238" stroke-linecap="round" stroke-linejoin="round"/>
<path d="M746.596 518.247C746.596 518.247 755.293 509.55 763.208 506.651" stroke="#263238" stroke-linecap="round" stroke-linejoin="round"/>
<path d="M755.042 527.486L766.445 510.748" stroke="#263238" stroke-linecap="round" stroke-linejoin="round"/>
<path d="M758.753 533.033C758.753 533.033 770.098 520.673 779.047 520.673" stroke="#263238" stroke-linecap="round" stroke-linejoin="round"/>
<path d="M764.425 543.364C769.108 535.724 776.272 529.924 784.719 526.935" stroke="#263238" stroke-linecap="round" stroke-linejoin="round"/>
<path d="M769.083 549.848C769.083 549.848 778.399 540.928 788.73 547.007" stroke="#263238" stroke-linecap="round" stroke-linejoin="round"/>
<path d="M776.167 559.976C776.167 559.976 783.26 558.352 791.368 552.071" stroke="#263238" stroke-linecap="round" stroke-linejoin="round"/>
<path d="M789.744 553.288L784.681 572.529" stroke="#263238" stroke-linecap="round" stroke-linejoin="round"/>
<path d="M795.62 560.382C795.62 560.382 791.755 573.341 788.73 579.013" stroke="#263238" stroke-linecap="round" stroke-linejoin="round"/>
<path d="M799.389 568.837C799.389 568.837 797.843 578.607 790.353 585.092" stroke="#263238" stroke-linecap="round" stroke-linejoin="round"/>
<path d="M805.38 575.428L805.11 575.225L790.179 586.822C790.071 587.621 789.896 588.409 789.658 589.18C790.827 589.112 801.254 588.658 806.762 593.432C806.869 593.528 806.965 593.596 807.072 593.683C809.12 591.209 810.937 590.436 811.372 585.952C811.971 580.221 807.478 576.926 805.38 575.428Z" fill="#B0B0B0" stroke="#263238" stroke-linecap="round" stroke-linejoin="round"/>
<path d="M786.903 595.461C786.903 595.461 798.249 595.664 802.307 602.352" stroke="#263238" stroke-linecap="round" stroke-linejoin="round"/>
<path d="M780.023 600.486C780.023 600.486 796.026 602.11 798.249 608.217" stroke="#263238" stroke-linecap="round" stroke-linejoin="round"/>
<path d="M775.771 602.516C775.771 602.516 780.023 606.381 781.037 610.005" stroke="#263238" stroke-linecap="round" stroke-linejoin="round"/>
<path d="M598.227 290.23L601.938 302.928" stroke="#263238" stroke-linejoin="round"/>
<path d="M607.756 293.409L610.143 308.224" stroke="#263238" stroke-linejoin="round"/>
<path d="M619.613 296.483L609.35 303.991" stroke="#263238" stroke-linejoin="round"/>
<path d="M613.312 310.379C613.312 310.379 626.552 300.329 631.046 300.851" stroke="#263238" stroke-linejoin="round"/>
<path d="M624.696 316.429L637.926 303.73" stroke="#263238" stroke-linejoin="round"/>
<path d="M634.486 320.4L647.455 306.369" stroke="#263238" stroke-linejoin="round"/>
<path d="M649.04 324.102L644.546 309.809" stroke="#263238" stroke-linejoin="round"/>
<path d="M651.948 307.171L659.1 323.57" stroke="#263238" stroke-linejoin="round"/>
<path d="M663.071 306.639L670.474 325.426" stroke="#263238" stroke-linejoin="round"/>
<path d="M666.512 315.897L681.587 307.693" stroke="#263238" stroke-linejoin="round"/>
<path d="M669.42 322.517L682.389 314.844" stroke="#263238" stroke-linejoin="round"/>
<path d="M712.55 334.162L766.803 324.894" stroke="#263238" stroke-linejoin="round"/>
<path d="M723.673 318.806L768.658 318.284" stroke="#263238" stroke-linecap="round" stroke-linejoin="round"/>
<path d="M741.928 318.284L754.143 303.373" stroke="#263238" stroke-linecap="round" stroke-linejoin="round"/>
<path d="M720.581 228.159C720.581 228.159 714.289 229.957 712.492 233.262C710.695 236.567 708.897 243.448 707.66 246.144C706.423 248.84 702.567 251.536 703.166 255.431C703.766 259.325 705.563 260.263 705.863 261.123C706.162 261.983 703.166 271.907 703.766 275.203C704.365 278.498 706.162 287.186 706.462 288.384C706.761 289.583 711.555 292.25 714.85 292.25C718.145 292.25 727.142 287.756 733.733 285.06C740.324 282.364 744.518 279.368 749.012 276.672C753.505 273.976 756.201 271.279 757.1 267.085C757.999 262.891 758.298 260.794 759.497 259.296C760.695 257.798 763.691 252.106 763.99 249.41C764.29 246.714 759.497 232.334 754.404 228.15C749.311 223.965 734.033 222.458 728.64 224.284C725.771 225.155 723.053 226.462 720.581 228.159Z" fill="#B0B0B0" stroke="#263238" stroke-linecap="round" stroke-linejoin="round"/>
<path d="M733.772 285.089C740.362 282.393 744.557 279.397 749.05 276.701C753.544 274.005 756.24 271.308 757.139 267.114C758.038 262.92 758.337 260.823 759.535 259.325C760.734 257.827 763.73 252.135 764.029 249.439C764.329 246.743 759.535 232.363 754.443 228.179C749.35 223.994 734.071 222.487 728.679 224.313C725.797 225.177 723.065 226.481 720.581 228.179C720.581 228.179 714.29 229.976 712.492 233.281C711.511 235.276 710.687 237.344 710.028 239.466C713.12 239.012 729.684 238.084 757.139 264.737L742.141 267.114C742.141 267.114 716.387 255.73 705.901 261.094C706.201 261.992 703.205 271.878 703.804 275.174C704.403 278.469 706.201 287.157 706.5 288.355C706.8 289.554 711.593 292.221 714.889 292.221C718.184 292.221 727.181 287.785 733.772 285.089Z" fill="white" stroke="#263238" stroke-linecap="round" stroke-linejoin="round"/>
<path d="M715.913 251.092C715.246 250.599 713.748 253.585 713.091 255.247C712.434 256.909 715.246 257.074 715.913 256.745C716.58 256.416 716.242 252.59 716.242 252.59C716.242 252.59 716.58 251.594 715.913 251.092Z" fill="#263238" stroke="#263238" stroke-linecap="round" stroke-linejoin="round"/>
<path d="M721.044 255.914C720.378 254.252 718.88 251.266 718.223 251.758C717.566 252.251 717.884 253.256 717.884 253.256C717.884 253.256 717.556 257.122 718.223 257.412C718.889 257.702 721.711 257.576 721.044 255.914Z" fill="#263238" stroke="#263238" stroke-linecap="round" stroke-linejoin="round"/>
<path d="M728.863 245.632C728.863 245.632 725.045 245.97 723.886 248.627C723.491 249.478 723.373 250.431 723.546 251.353C723.719 252.274 724.176 253.119 724.852 253.769C725.519 254.6 728.718 255.605 731.491 256.764C734.265 257.924 737.637 257.093 737.975 255.266C738.314 253.44 738.14 249.285 734.487 247.129C730.834 244.974 728.863 245.632 728.863 245.632Z" fill="#263238" stroke="#263238" stroke-linecap="round" stroke-linejoin="round"/>
<path d="M715.198 249.855C716.104 248.852 716.597 247.543 716.58 246.192C716.734 243.593 715.613 242.22 713.826 241.611C712.038 241.003 710.762 241.457 709.235 243.747C707.708 246.037 706.945 247.719 706.945 249.091C706.945 250.464 707.399 250.773 709.235 251.382C710.488 251.755 711.806 251.858 713.101 251.681C713.516 251.681 715.198 249.855 715.198 249.855Z" fill="#263238" stroke="#263238" stroke-linecap="round" stroke-linejoin="round"/>
<path d="M715.188 247.941C715.192 248.594 715.002 249.233 714.642 249.777C714.283 250.322 713.769 250.747 713.167 251C712.566 251.252 711.902 251.32 711.262 251.195C710.621 251.07 710.032 250.758 709.57 250.298C709.107 249.838 708.791 249.25 708.662 248.611C708.534 247.971 708.598 247.307 708.847 246.704C709.095 246.101 709.518 245.585 710.06 245.222C710.602 244.859 711.24 244.665 711.893 244.665C712.764 244.665 713.599 245.01 714.216 245.624C714.834 246.237 715.183 247.071 715.188 247.941Z" fill="white" stroke="#263238" stroke-linecap="round" stroke-linejoin="round"/>
<path d="M734.071 252.135C734.071 252.9 733.845 253.647 733.42 254.283C732.995 254.919 732.391 255.414 731.685 255.707C730.979 255.999 730.202 256.076 729.452 255.927C728.702 255.777 728.013 255.409 727.472 254.869C726.932 254.328 726.564 253.639 726.415 252.889C726.265 252.14 726.342 251.362 726.635 250.656C726.927 249.95 727.423 249.346 728.058 248.921C728.694 248.497 729.441 248.27 730.206 248.27C731.231 248.27 732.214 248.677 732.939 249.402C733.664 250.127 734.071 251.11 734.071 252.135Z" fill="white" stroke="#263238" stroke-linecap="round" stroke-linejoin="round"/>
<path d="M742.488 255.914C742.488 255.914 742.488 260.891 740.991 262.06C739.493 263.229 736.004 260.726 732.854 260.891" stroke="#263238" stroke-linecap="round" stroke-linejoin="round"/>
<path d="M722.552 252.754C722.552 252.754 722.223 257.586 726.418 259.238" stroke="#263238" stroke-linecap="round" stroke-linejoin="round"/>
<path d="M713.584 251.923C713.584 251.923 710.926 255.247 708.607 254.919" stroke="#263238" stroke-linecap="round" stroke-linejoin="round"/>
<path d="M716.744 229.667C716.744 229.667 752.5 240.635 757.139 264.718" stroke="#263238" stroke-linecap="round" stroke-linejoin="round"/>
<path d="M720.581 228.159C720.581 228.159 746.306 232.16 763.246 252.59" stroke="#263238" stroke-linecap="round" stroke-linejoin="round"/>
<path d="M742.488 224.188C742.488 224.188 750.287 227.676 756.598 245.786" stroke="#263238" stroke-linecap="round" stroke-linejoin="round"/>
<path d="M705.283 266.042C705.283 266.042 732.863 266.438 749.05 276.672" stroke="#263238" stroke-linecap="round" stroke-linejoin="round"/>
<path d="M742.16 267.114L732.689 269.53" stroke="#263238" stroke-linecap="round" stroke-linejoin="round"/>
<path d="M703.949 272.516C703.949 272.516 727.374 272.023 743.32 280.489" stroke="#263238" stroke-linecap="round" stroke-linejoin="round"/>
<path d="M705.07 280.566C705.07 280.566 717.633 279.928 734.39 284.586" stroke="#263238" stroke-linecap="round" stroke-linejoin="round"/>
<path d="M707.438 280.663L725.712 288.462" stroke="#263238" stroke-linecap="round" stroke-linejoin="round"/>
<path d="M743.977 253.749L748.132 266.206L757.139 264.718C757.139 264.718 747.465 254.754 743.977 253.749Z" stroke="#263238" stroke-linecap="round" stroke-linejoin="round"/>
<path d="M730.022 251.343C729.97 251.552 729.849 251.737 729.679 251.87C729.509 252.002 729.3 252.074 729.085 252.074C728.869 252.074 728.66 252.002 728.49 251.87C728.32 251.737 728.2 251.552 728.147 251.343C728.2 251.134 728.32 250.948 728.49 250.816C728.66 250.683 728.869 250.611 729.085 250.611C729.3 250.611 729.509 250.683 729.679 250.816C729.849 250.948 729.97 251.134 730.022 251.343Z" fill="#263238"/>
<path d="M711.748 247.149C711.696 247.358 711.575 247.543 711.405 247.676C711.235 247.808 711.026 247.88 710.811 247.88C710.595 247.88 710.386 247.808 710.216 247.676C710.046 247.543 709.926 247.358 709.873 247.149C709.837 247.006 709.835 246.858 709.865 246.714C709.895 246.57 709.958 246.435 710.049 246.319C710.139 246.204 710.255 246.11 710.387 246.045C710.519 245.981 710.664 245.948 710.811 245.948C710.957 245.948 711.102 245.981 711.234 246.045C711.366 246.11 711.482 246.204 711.572 246.319C711.663 246.435 711.726 246.57 711.756 246.714C711.786 246.858 711.784 247.006 711.748 247.149Z" fill="#263238"/>
<path d="M744.257 306.069L737.367 311.461C737.367 311.461 721.479 313.858 716.387 315.955C711.294 318.052 702.007 319.55 702.007 319.55C702.007 319.55 666.657 317.144 655.862 317.144C645.068 317.144 629.499 316.545 624.406 316.545C619.314 316.545 603.736 321.009 601.938 321.009C600.141 321.009 586.35 321.309 585.452 321.608C584.553 321.908 577.962 330.306 576.754 333.592C575.546 336.877 574.957 337.457 576.455 337.786C577.953 338.114 579.151 337.786 580.05 335.389C580.948 332.992 586.041 327.9 586.041 327.9H590.235C590.235 327.9 586.041 332.393 585.142 333.592C584.244 334.79 582.746 340.482 582.746 340.482C582.746 340.482 583.944 342.579 586.041 341.98C588.138 341.381 589.907 334.191 589.907 334.191L596.198 330.325C596.198 330.325 592.332 334.519 592.332 336.017C592.332 337.515 590.235 341.11 591.134 343.207C592.033 345.304 594.729 342.907 594.729 342.907L598.923 333.321L602.528 331.523L605.224 333.621C605.224 333.621 601.629 338.114 600.121 339.612C598.614 341.11 596.256 343.207 597.126 344.444C597.995 345.681 599.822 343.545 601.329 342.946C602.837 342.347 606.422 338.114 608.22 336.655C609.794 335.111 611.2 333.403 612.414 331.562C612.414 331.562 618.106 329.765 619.903 329.165C622.27 328.106 624.571 326.905 626.793 325.571C626.793 325.571 668.744 336.355 677.432 337.254C686.12 338.153 702.896 341.748 706.79 341.748C710.685 341.748 715.778 339.95 716.676 339.651C717.575 339.351 737.357 335.457 743.349 332.76C749.34 330.064 757.728 327.368 761.623 325.271C765.517 323.174 771.209 321.405 768.813 310.592C766.416 299.778 752.935 303.701 749.939 304.6" fill="white"/>
<path d="M744.257 306.069L737.367 311.461C737.367 311.461 721.479 313.858 716.387 315.955C711.294 318.052 702.007 319.55 702.007 319.55C702.007 319.55 666.657 317.144 655.862 317.144C645.068 317.144 629.499 316.545 624.406 316.545C619.314 316.545 603.736 321.009 601.938 321.009C600.141 321.009 586.35 321.309 585.452 321.608C584.553 321.908 577.962 330.306 576.754 333.592C575.546 336.877 574.957 337.457 576.455 337.786C577.953 338.114 579.151 337.786 580.05 335.389C580.948 332.992 586.041 327.9 586.041 327.9H590.235C590.235 327.9 586.041 332.393 585.142 333.592C584.244 334.79 582.746 340.482 582.746 340.482C582.746 340.482 583.944 342.579 586.041 341.98C588.138 341.381 589.907 334.191 589.907 334.191L596.198 330.325C596.198 330.325 592.332 334.519 592.332 336.017C592.332 337.515 590.235 341.11 591.134 343.207C592.033 345.304 594.729 342.907 594.729 342.907L598.923 333.321L602.528 331.523L605.224 333.621C605.224 333.621 601.629 338.114 600.121 339.612C598.614 341.11 596.256 343.207 597.126 344.444C597.995 345.681 599.822 343.545 601.329 342.946C602.837 342.347 606.422 338.114 608.22 336.655C609.794 335.111 611.2 333.403 612.414 331.562C612.414 331.562 618.106 329.765 619.903 329.165C622.27 328.106 624.571 326.905 626.793 325.571C626.793 325.571 668.744 336.355 677.432 337.254C686.12 338.153 702.896 341.748 706.79 341.748C710.685 341.748 715.778 339.95 716.676 339.651C717.575 339.351 737.357 335.457 743.349 332.76C749.34 330.064 757.728 327.368 761.623 325.271C765.517 323.174 771.209 321.405 768.813 310.592C766.416 299.778 752.935 303.701 749.939 304.6" stroke="#263238" stroke-linecap="round" stroke-linejoin="round"/>
<path d="M624.406 316.554C619.314 316.554 603.736 321.048 601.938 321.048C600.141 321.048 586.35 321.348 585.452 321.647C584.553 321.947 577.962 330.345 576.754 333.63C575.546 336.916 574.957 337.496 576.455 337.824C577.953 338.153 579.151 337.824 580.05 335.428C580.948 333.031 586.041 327.938 586.041 327.938H590.235C590.235 327.938 586.041 332.432 585.142 333.63C584.244 334.829 582.746 340.52 582.746 340.52C582.746 340.52 583.944 342.618 586.041 342.018C588.138 341.419 589.907 334.229 589.907 334.229L596.198 330.364C596.198 330.364 592.332 334.558 592.332 336.056C592.332 337.554 590.235 341.149 591.134 343.246C592.033 345.343 594.729 342.946 594.729 342.946L598.923 333.36L602.528 331.562L605.224 333.659C605.224 333.659 601.629 338.153 600.121 339.651C598.614 341.149 596.256 343.246 597.126 344.483C597.995 345.72 599.822 343.584 601.329 342.985C602.837 342.386 606.422 338.153 608.22 336.694C609.794 335.149 611.2 333.442 612.414 331.601C612.414 331.601 618.106 329.803 619.903 329.204C622.27 328.145 624.571 326.944 626.793 325.609C628.108 320.584 624.406 316.554 624.406 316.554Z" fill="#B0B0B0" stroke="#263238" stroke-linecap="round" stroke-linejoin="round"/>
<path d="M601.938 321.048L612.423 331.533L619.913 329.137L612.791 318.497L601.938 321.048Z" fill="white" stroke="#263238" stroke-linecap="round" stroke-linejoin="round"/>
<path d="M612.423 331.533V383.138L619.488 387.516L615.564 330.499L612.423 331.533Z" fill="white" stroke="#263238" stroke-linecap="round" stroke-linejoin="round"/>
<path d="M648.344 330.963L655.862 317.153L664.27 317.811L662.656 334.423L648.344 330.963Z" fill="#B0B0B0" stroke="#263238" stroke-linecap="round" stroke-linejoin="round"/>
<path d="M634.447 316.583C634.447 316.583 637.54 318.516 638.313 328.18" stroke="#263238" stroke-linecap="round" stroke-linejoin="round"/>
<path d="M644.894 317.356C644.894 317.356 647.145 325.996 648.344 330.963" stroke="#263238" stroke-linecap="round" stroke-linejoin="round"/>
<path d="M672.358 317.743C672.358 317.743 675.837 328.963 676.224 337.07" stroke="#263238" stroke-linecap="round" stroke-linejoin="round"/>
<path d="M685.511 318.526C685.511 318.526 690.922 330.518 689.763 339.023" stroke="#263238" stroke-linecap="round" stroke-linejoin="round"/>
<path d="M689.763 333.572C689.763 333.572 694.517 321.309 702.007 319.511" stroke="#263238" stroke-linecap="round" stroke-linejoin="round"/>
<path d="M699.823 340.569C699.823 340.569 700.982 322.778 710.656 318.129C710.656 318.129 726.514 332.065 729.23 336.703" stroke="#263238" stroke-linecap="round" stroke-linejoin="round"/>
<path d="M713.748 340.569L703.302 326.643" stroke="#263238" stroke-linecap="round" stroke-linejoin="round"/>
<path d="M721.489 314.65C721.489 314.65 740.817 320.449 746.248 331.678" stroke="#263238" stroke-linecap="round" stroke-linejoin="round"/>
<path d="M737.367 311.461C737.367 311.461 753.215 320.043 752.433 329.707" stroke="#263238" stroke-linecap="round" stroke-linejoin="round"/>
<path d="M744.701 316.583C752.297 316.568 759.811 318.152 766.754 321.231" stroke="#263238" stroke-linecap="round" stroke-linejoin="round"/>
<path d="M742.382 314.245C742.382 314.245 757.467 305.344 765.981 305.731" stroke="#263238" stroke-linecap="round" stroke-linejoin="round"/>
</svg>
