<svg width="16" height="16" viewBox="0 0 16 16" fill="none" xmlns="http://www.w3.org/2000/svg">
<path d="M5.20005 8.79999C4.97914 8.79999 4.80005 8.97911 4.80005 9.19999V10.8C4.80005 11.0209 4.97914 11.2 5.20005 11.2C5.42096 11.2 5.60005 11.0209 5.60005 10.8V10.6669H5.86661C6.38214 10.6669 6.80005 10.2489 6.80005 9.73343C6.80005 9.21791 6.38214 8.79999 5.86661 8.79999H5.20005ZM5.86661 9.86687H5.60005V9.59999H5.86661C5.9403 9.59999 6.00005 9.65975 6.00005 9.73343C6.00005 9.80711 5.9403 9.86687 5.86661 9.86687Z" fill="#212121"/>
<path d="M9.6006 9.19951C9.60092 8.97879 9.77988 8.79999 10.0006 8.79999H10.7992C11.0202 8.79999 11.1992 8.97911 11.1992 9.19999C11.1992 9.42087 11.0202 9.59999 10.7992 9.59999H10.4001L10.3998 9.86759H10.7992C11.0202 9.86759 11.1992 10.0466 11.1992 10.2676C11.1992 10.4885 11.0202 10.6676 10.7992 10.6676H10.4003L10.4006 10.7989C10.4012 11.0199 10.2225 11.1994 10.0016 11.2C9.78068 11.2005 9.60116 11.0219 9.6006 10.801L9.59924 10.2671L9.6006 9.19951Z" fill="#212121"/>
<path d="M7.59885 8.79999C7.37793 8.79999 7.19885 8.97911 7.19885 9.19999V10.8C7.19885 11.0209 7.37793 11.2 7.59885 11.2H8C8.66274 11.2 9.20002 10.6627 9.20002 9.99999C9.20002 9.33727 8.66274 8.79999 8 8.79999H7.59885ZM7.99885 10.4V9.59999H8C8.2209 9.59999 8.40002 9.77911 8.40002 9.99999C8.40002 10.2209 8.2209 10.4 8 10.4H7.99885Z" fill="#212121"/>
<path d="M7.99996 5.20001V1.60001H4.39996C3.73721 1.60001 3.19995 2.13726 3.19995 2.80001V7.26538C2.73449 7.43045 2.40112 7.87464 2.40112 8.39665V11.5992C2.40112 12.1213 2.73449 12.5654 3.19995 12.7306V13.2C3.19995 13.8627 3.73721 14.4 4.39996 14.4H11.6C12.2627 14.4 12.8 13.8627 12.8 13.2V12.7306C13.2656 12.5656 13.599 12.1214 13.599 11.5992V8.39665C13.599 7.87456 13.2656 7.43032 12.8 7.26531V6.40001H9.19996C8.53724 6.40001 7.99996 5.86275 7.99996 5.20001ZM3.60112 7.99669H12.399C12.6199 7.99669 12.799 8.17577 12.799 8.39665V11.5992C12.799 11.8202 12.6199 11.9992 12.399 11.9992H3.60113C3.38021 11.9992 3.20112 11.8202 3.20112 11.5992V8.39665C3.20112 8.17577 3.38021 7.99669 3.60112 7.99669Z" fill="#212121"/>
<path d="M8.80005 5.19999V1.79999L12.6 5.59999H9.20005C8.97917 5.59999 8.80005 5.4209 8.80005 5.19999Z" fill="#212121"/>
</svg>
