<svg width="16" height="16" viewBox="0 0 16 16" fill="none" xmlns="http://www.w3.org/2000/svg">
<g clip-path="url(#clip0_110_2)">
<path d="M14 12.3333C14 12.9522 13.7542 13.5457 13.3166 13.9833C12.879 14.4208 12.2855 14.6667 11.6667 14.6667C11.0478 14.6667 10.4543 14.4208 10.0168 13.9833C9.57917 13.5457 9.33333 12.9522 9.33333 12.3333C9.33389 12.1465 9.35854 11.9605 9.40667 11.78L5.91333 10.04C5.48564 10.4424 4.92057 10.6665 4.33333 10.6667C3.71449 10.6667 3.121 10.4208 2.68342 9.98325C2.24583 9.54567 2 8.95217 2 8.33333C2 7.7145 2.24583 7.121 2.68342 6.68342C3.121 6.24583 3.71449 6 4.33333 6C4.92057 6.00016 5.48564 6.22427 5.91333 6.62667L9.40667 4.88667C9.35854 4.70614 9.33389 4.52016 9.33333 4.33333C9.33333 3.87184 9.47018 3.42072 9.72657 3.037C9.98296 2.65329 10.3474 2.35422 10.7737 2.17762C11.2001 2.00101 11.6693 1.9548 12.1219 2.04484C12.5745 2.13487 12.9903 2.3571 13.3166 2.68342C13.6429 3.00974 13.8651 3.4255 13.9552 3.87812C14.0452 4.33075 13.999 4.7999 13.8224 5.22626C13.6458 5.65262 13.3467 6.01704 12.963 6.27343C12.5793 6.52982 12.1282 6.66667 11.6667 6.66667C11.0794 6.66651 10.5144 6.44239 10.0867 6.04L6.59333 7.78C6.691 8.14243 6.691 8.52424 6.59333 8.88667L10.0867 10.6267C10.5144 10.2243 11.0794 10.0002 11.6667 10C12.2855 10 12.879 10.2458 13.3166 10.6834C13.7542 11.121 14 11.7145 14 12.3333Z" fill="white"/>
</g>
<defs>
<clipPath id="clip0_110_2">
<rect width="16" height="16" fill="white"/>
</clipPath>
</defs>
</svg>
